<svg xmlns="http://www.w3.org/2000/svg" xmlns:xlink="http://www.w3.org/1999/xlink" width="14" height="14" viewBox="0 0 14 14">
    <defs>
        <filter id="prefix__a" width="111.9%" height="108.8%" x="-6%" y="-4.4%" filterUnits="objectBoundingBox">
            <feOffset in="SourceAlpha" result="shadowOffsetOuter1"/>
            <feGaussianBlur in="shadowOffsetOuter1" result="shadowBlurOuter1" stdDeviation="4"/>
            <feColorMatrix in="shadowBlurOuter1" result="shadowMatrixOuter1" values="0 0 0 0 0 0 0 0 0 0 0 0 0 0 0 0 0 0 0.5 0"/>
            <feMerge>
                <feMergeNode in="shadowMatrixOuter1"/>
                <feMergeNode in="SourceGraphic"/>
            </feMerge>
        </filter>
        <path id="prefix__b" d="M12.6 7H9.2c-.11 0-.2-.09-.2-.2V3.4c0-.552-.448-1-1-1s-1 .448-1 1v3.4c0 .11-.09.2-.2.2H3.4c-.552 0-1 .448-1 1s.448 1 1 1h3.4c.11 0 .2.09.2.2v3.4c0 .552.448 1 1 1s1-.448 1-1V9.2c0-.11.09-.2.2-.2h3.4c.552 0 1-.448 1-1s-.448-1-1-1z"/>
    </defs>
    <g fill="none" fill-rule="evenodd" filter="url(#prefix__a)" transform="translate(-16 -8)">
        <g transform="translate(15 7)">
            <mask id="prefix__c" fill="#fff">
                <use xlink:href="#prefix__b"/>
            </mask>
            <use fill="#000" fill-rule="nonzero" transform="rotate(45 8 8)" xlink:href="#prefix__b"/>
            <g fill="#666" mask="url(#prefix__c)">
                <path d="M0 0H14V14H0z" transform="translate(1 1)"/>
            </g>
        </g>
    </g>
</svg>
