<svg xmlns="http://www.w3.org/2000/svg" xmlns:xlink="http://www.w3.org/1999/xlink" width="14" height="14" viewBox="0 0 14 14">
    <defs>
        <filter id="prefix__a" width="111.9%" height="108.8%" x="-6%" y="-4.4%" filterUnits="objectBoundingBox">
            <feOffset in="SourceAlpha" result="shadowOffsetOuter1"/>
            <feGaussianBlur in="shadowOffsetOuter1" result="shadowBlurOuter1" stdDeviation="4"/>
            <feColorMatrix in="shadowBlurOuter1" result="shadowMatrixOuter1" values="0 0 0 0 0 0 0 0 0 0 0 0 0 0 0 0 0 0 0.5 0"/>
            <feMerge>
                <feMergeNode in="shadowMatrixOuter1"/>
                <feMergeNode in="SourceGraphic"/>
            </feMerge>
        </filter>
        <path id="prefix__b" d="M5.971 1.834L8.084 3.96l-5.35 5.377-.01-.01-2.327.567C.245 9.93.107 9.815.1 9.669l.006-.064.527-2.383-.01-.01L5.97 1.834zM7.424.374c.366-.366.957-.366 1.322 0l.942.948c.283.284.283.742 0 1.026L8.635 3.407 6.522 1.282z"/>
    </defs>
    <g fill="none" fill-rule="evenodd" filter="url(#prefix__a)" transform="translate(-38 -8)">
        <g transform="translate(40 10)">
            <mask id="prefix__c" fill="#fff">
                <use xlink:href="#prefix__b"/>
            </mask>
            <use fill="#000" fill-rule="nonzero" xlink:href="#prefix__b"/>
            <g fill="#666" mask="url(#prefix__c)">
                <path d="M0 0H14V14H0z" transform="translate(-2 -2)"/>
            </g>
        </g>
    </g>
</svg>
