<svg xmlns="http://www.w3.org/2000/svg" xmlns:xlink="http://www.w3.org/1999/xlink" width="14" height="14" viewBox="0 0 14 14">
    <defs>
        <filter id="prefix__a" width="111.9%" height="108.8%" x="-6%" y="-4.4%" filterUnits="objectBoundingBox">
            <feOffset in="SourceAlpha" result="shadowOffsetOuter1"/>
            <feGaussianBlur in="shadowOffsetOuter1" result="shadowBlurOuter1" stdDeviation="4"/>
            <feColorMatrix in="shadowBlurOuter1" result="shadowMatrixOuter1" values="0 0 0 0 0 0 0 0 0 0 0 0 0 0 0 0 0 0 0.5 0"/>
            <feMerge>
                <feMergeNode in="shadowMatrixOuter1"/>
                <feMergeNode in="SourceGraphic"/>
            </feMerge>
        </filter>
        <path id="prefix__b" d="M5 .4C2.684.4.8 2.22.8 4.456c0 2.776 3.759 6.85 3.919 7.023.15.162.412.161.562 0 .16-.172 3.919-4.247 3.919-7.023C9.2 2.22 7.316.4 5 .4zm0 6.097c-1.165 0-2.113-.916-2.113-2.04 0-1.126.948-2.042 2.113-2.042s2.113.916 2.113 2.041c0 1.126-.948 2.041-2.113 2.041z"/>
    </defs>
    <g fill="none" fill-rule="evenodd" filter="url(#prefix__a)" transform="translate(-18 -198)">
        <g transform="translate(20 199)">
            <mask id="prefix__c" fill="#fff">
                <use xlink:href="#prefix__b"/>
            </mask>
            <use fill="#000" fill-rule="nonzero" xlink:href="#prefix__b"/>
            <g fill="#999" mask="url(#prefix__c)">
                <path d="M0 0H14V14H0z" transform="translate(-2 -1)"/>
            </g>
        </g>
    </g>
</svg>
