<svg xmlns="http://www.w3.org/2000/svg" xmlns:xlink="http://www.w3.org/1999/xlink" width="12" height="12" viewBox="0 0 12 12">
    <defs>
        <filter id="prefix__a" width="111.9%" height="108.8%" x="-6%" y="-4.4%" filterUnits="objectBoundingBox">
            <feOffset in="SourceAlpha" result="shadowOffsetOuter1"/>
            <feGaussianBlur in="shadowOffsetOuter1" result="shadowBlurOuter1" stdDeviation="4"/>
            <feColorMatrix in="shadowBlurOuter1" result="shadowMatrixOuter1" values="0 0 0 0 0 0 0 0 0 0 0 0 0 0 0 0 0 0 0.5 0"/>
            <feMerge>
                <feMergeNode in="shadowMatrixOuter1"/>
                <feMergeNode in="SourceGraphic"/>
            </feMerge>
        </filter>
        <path id="prefix__b" d="M2.867.2v1.033h4.266V.2H8.2v1.033h.533c.59 0 1.067.462 1.067 1.032v6.502c0 .57-.477 1.033-1.067 1.033H1.267C.677 9.8.2 9.338.2 8.767l.005-6.502c0-.57.472-1.032 1.062-1.032H1.8V.2h1.067zm5.866 2.888H1.267v5.68h7.466v-5.68zM6.851 4.121l.565.547-3.168 3.067-1.696-1.642.565-.547L4.248 6.64l2.603-2.52z"/>
    </defs>
    <g fill="none" fill-rule="evenodd" filter="url(#prefix__a)" transform="translate(-24 -334)">
        <g transform="translate(25 335)">
            <mask id="prefix__c" fill="#fff">
                <use xlink:href="#prefix__b"/>
            </mask>
            <use fill="#000" fill-rule="nonzero" xlink:href="#prefix__b"/>
            <g fill="#E6E6E6" mask="url(#prefix__c)">
                <path d="M0 0H12V12H0z" transform="translate(-1 -1)"/>
            </g>
        </g>
    </g>
</svg>
