<svg xmlns="http://www.w3.org/2000/svg" xmlns:xlink="http://www.w3.org/1999/xlink" width="14" height="14" viewBox="0 0 14 14">
    <defs>
        <path id="prefix__a" d="M10.6 5H7.2c-.11 0-.2-.09-.2-.2V1.4c0-.552-.448-1-1-1s-1 .448-1 1v3.4c0 .11-.09.2-.2.2H1.4c-.552 0-1 .448-1 1s.448 1 1 1h3.4c.11 0 .2.09.2.2v3.4c0 .552.448 1 1 1s1-.448 1-1V7.2c0-.11.09-.2.2-.2h3.4c.552 0 1-.448 1-1s-.448-1-1-1z"/>
    </defs>
    <g fill="none" fill-rule="evenodd" transform="translate(1 1)">
        <mask id="prefix__b" fill="#fff">
            <use xlink:href="#prefix__a"/>
        </mask>
        <use fill="#000" fill-rule="nonzero" xlink:href="#prefix__a"/>
        <g fill="#E6E6E6" mask="url(#prefix__b)">
            <path d="M0 0H14V14H0z" transform="translate(-1 -1)"/>
        </g>
    </g>
</svg>
