<svg xmlns="http://www.w3.org/2000/svg" xmlns:xlink="http://www.w3.org/1999/xlink" width="20" height="20" viewBox="0 0 20 20">
    <defs>
        <filter id="prefix__a" width="106.6%" height="128.6%" x="-3.3%" y="-14.3%" filterUnits="objectBoundingBox">
            <feOffset in="SourceAlpha" result="shadowOffsetOuter1"/>
            <feGaussianBlur in="shadowOffsetOuter1" result="shadowBlurOuter1" stdDeviation="1"/>
            <feColorMatrix in="shadowBlurOuter1" result="shadowMatrixOuter1" values="0 0 0 0 0 0 0 0 0 0 0 0 0 0 0 0 0 0 0.5 0"/>
            <feMerge>
                <feMergeNode in="shadowMatrixOuter1"/>
                <feMergeNode in="SourceGraphic"/>
            </feMerge>
        </filter>
        <path id="prefix__b" d="M3.738 0c.658 0 1.19.495 1.19 1.106v.83h6.143v-.83c0-.611.533-1.106 1.19-1.106h.049c.657 0 1.19.495 1.19 1.106v.83h1.31c.657 0 1.19.495 1.19 1.105v11.853c0 .611-.533 1.106-1.19 1.106H1.19C.533 16 0 15.505 0 14.894V3.041c0-.61.533-1.105 1.19-1.105H2.5v-.83C2.5.495 3.033 0 3.69 0zM14 5.275H2v8.978h12V5.275zm-8.298 4.881c.106 0 .19.08.19.177v1.924c0 .098-.084.177-.19.177H3.631c-.105 0-.19-.08-.19-.177v-1.924c0-.098.085-.177.19-.177zm3.334 0c.105 0 .19.08.19.177v1.924c0 .098-.085.177-.19.177H6.964c-.105 0-.19-.08-.19-.177v-1.924c0-.098.085-.177.19-.177zm3.333 0c.105 0 .19.08.19.177v1.924c0 .098-.085.177-.19.177h-2.071c-.106 0-.19-.08-.19-.177v-1.924c0-.098.084-.177.19-.177zM5.702 7.06c.106 0 .19.08.19.177v1.924c0 .098-.084.177-.19.177H3.631c-.105 0-.19-.08-.19-.177V7.237c0-.098.085-.177.19-.177zm3.334 0c.105 0 .19.08.19.177v1.924c0 .098-.085.177-.19.177H6.964c-.105 0-.19-.08-.19-.177V7.237c0-.098.085-.177.19-.177zm3.333 0c.105 0 .19.08.19.177v1.924c0 .098-.085.177-.19.177h-2.071c-.106 0-.19-.08-.19-.177V7.237c0-.098.084-.177.19-.177z"/>
    </defs>
    <g fill="none" fill-rule="evenodd" filter="url(#prefix__a)" transform="translate(-8 -4)">
        <g transform="translate(10 6)">
            <mask id="prefix__c" fill="#fff">
                <use xlink:href="#prefix__b"/>
            </mask>
            <use fill="#000" fill-rule="nonzero" xlink:href="#prefix__b"/>
            <g fill="#666" mask="url(#prefix__c)">
                <path d="M0 0H20V20H0z" transform="translate(-2 -2)"/>
            </g>
        </g>
    </g>
</svg>
