<svg xmlns="http://www.w3.org/2000/svg" xmlns:xlink="http://www.w3.org/1999/xlink" width="16" height="16" viewBox="0 0 16 16">
    <defs>
        <path id="prefix__a" d="M3.59.6c.526 0 .953.396.953.885v.664h4.914v-.664c0-.489.427-.885.953-.885h.038c.526 0 .952.396.952.885v.664h1.048c.526 0 .952.396.952.884v9.482c0 .489-.426.885-.952.885H1.552c-.526 0-.952-.396-.952-.885V3.033c0-.488.426-.884.952-.884H2.6v-.664C2.6.996 3.026.6 3.552.6zm8.21 4.22H2.2v7.182h9.6V4.82zM5.162 8.725c.084 0 .152.063.152.141v1.54c0 .078-.068.141-.152.141H3.505c-.084 0-.153-.063-.153-.142V8.866c0-.078.069-.141.153-.141zm2.667 0c.084 0 .152.063.152.141v1.54c0 .078-.068.141-.152.141H6.17c-.084 0-.152-.063-.152-.142V8.866c0-.078.068-.141.152-.141zm2.666 0c.084 0 .153.063.153.141v1.54c0 .078-.069.141-.153.141H8.838c-.084 0-.152-.063-.152-.142V8.866c0-.078.068-.141.152-.141zM5.162 6.248c.084 0 .152.064.152.142v1.539c0 .078-.068.141-.152.141H3.505c-.084 0-.153-.063-.153-.141v-1.54c0-.077.069-.14.153-.14zm2.667 0c.084 0 .152.064.152.142v1.539c0 .078-.068.141-.152.141H6.17c-.084 0-.152-.063-.152-.141v-1.54c0-.077.068-.14.152-.14zm2.666 0c.084 0 .153.064.153.142v1.539c0 .078-.069.141-.153.141H8.838c-.084 0-.152-.063-.152-.141v-1.54c0-.077.068-.14.152-.14z"/>
    </defs>
    <g fill="none" fill-rule="evenodd" transform="translate(1 1)">
        <mask id="prefix__b" fill="#fff">
            <use xlink:href="#prefix__a"/>
        </mask>
        <use fill="#000" fill-rule="nonzero" xlink:href="#prefix__a"/>
        <g fill="#E6E6E6" mask="url(#prefix__b)">
            <path d="M0 0H16V16H0z" transform="translate(-1 -1)"/>
        </g>
    </g>
</svg>
