<svg xmlns="http://www.w3.org/2000/svg" xmlns:xlink="http://www.w3.org/1999/xlink" width="10" height="10" viewBox="0 0 10 10">
    <defs>
        <path id="prefix__a" d="M1.869 0c.329 0 .595.248.595.553v.415h3.072V.553c0-.305.266-.553.595-.553h.024c.329 0 .595.248.595.553v.415h.655c.328 0 .595.247.595.553v5.926C8 7.753 7.734 8 7.405 8H.595C.267 8 0 7.753 0 7.447V1.521C0 1.215.267.968.595.968h.655V.553c0-.305.266-.553.595-.553zM7 2.637H1v4.49h6v-4.49zM2.851 5.078c.053 0 .095.04.095.089v.961c0 .05-.042.089-.095.089H1.815c-.052 0-.095-.04-.095-.089v-.961c0-.05.043-.089.095-.089zm1.667 0c.052 0 .095.04.095.089v.961c0 .05-.043.089-.095.089H3.482c-.052 0-.095-.04-.095-.089v-.961c0-.05.043-.089.095-.089zm1.667 0c.052 0 .095.04.095.089v.961c0 .05-.043.089-.096.089H5.15c-.053 0-.095-.04-.095-.089v-.961c0-.05.042-.089.095-.089zM2.85 3.53c.053 0 .095.04.095.089v.961c0 .05-.042.089-.095.089H1.815c-.052 0-.095-.04-.095-.089V3.62c0-.05.043-.089.095-.089zm1.667 0c.052 0 .095.04.095.089v.961c0 .05-.043.089-.095.089H3.482c-.052 0-.095-.04-.095-.089V3.62c0-.05.043-.089.095-.089zm1.667 0c.052 0 .095.04.095.089v.961c0 .05-.043.089-.096.089H5.15c-.053 0-.095-.04-.095-.089V3.62c0-.05.042-.089.095-.089z"/>
    </defs>
    <g fill="none" fill-rule="evenodd" transform="translate(1 1)">
        <mask id="prefix__b" fill="#fff">
            <use xlink:href="#prefix__a"/>
        </mask>
        <use fill="#000" fill-rule="nonzero" xlink:href="#prefix__a"/>
        <g fill="#999" mask="url(#prefix__b)">
            <path d="M0 0H10V10H0z" transform="translate(-1 -1)"/>
        </g>
    </g>
</svg>
