<svg xmlns="http://www.w3.org/2000/svg" xmlns:xlink="http://www.w3.org/1999/xlink" width="16" height="16" viewBox="0 0 16 16">
    <defs>
        <path id="prefix__a" d="M12.25 4.35c.207 0 .375.168.375.375v7.925h.4c.207 0 .375.168.375.375s-.168.375-.375.375H.975c-.207 0-.375-.168-.375-.375s.168-.375.375-.375h.4V8.475c0-.207.168-.375.375-.375h1.5c.207 0 .375.168.375.375v4.175h.75V9.975c0-.207.168-.375.375-.375h1.5c.207 0 .375.168.375.375v2.675h.75V6.975c0-.207.168-.375.375-.375h1.5c.207 0 .375.168.375.375v5.675h.75V4.725c0-.207.168-.375.375-.375zM11.5.6c.62 0 1.125.505 1.125 1.125S12.12 2.85 11.5 2.85c-.23 0-.444-.07-.623-.19l-1.308.982c.033.106.056.216.056.333 0 .62-.505 1.125-1.125 1.125-.173 0-.335-.043-.482-.113L6.512 6.493c.07.147.113.309.113.482 0 .62-.505 1.125-1.125 1.125s-1.125-.505-1.125-1.125c0-.047.008-.091.014-.136l-1.11-.555c-.203.195-.476.316-.779.316-.62 0-1.125-.505-1.125-1.125S1.88 4.35 2.5 4.35s1.125.505 1.125 1.125c0 .047-.008.091-.014.136l1.11.555c.203-.195.476-.316.779-.316.173 0 .335.043.482.113l1.506-1.506c-.07-.147-.113-.309-.113-.482 0-.62.505-1.125 1.125-1.125.23 0 .444.07.623.19l1.308-.982c-.033-.106-.056-.216-.056-.333 0-.62.505-1.125 1.125-1.125z"/>
    </defs>
    <g fill="none" fill-rule="evenodd" transform="translate(1 1)">
        <mask id="prefix__b" fill="#fff">
            <use xlink:href="#prefix__a"/>
        </mask>
        <use fill="#000" fill-rule="nonzero" xlink:href="#prefix__a"/>
        <g fill="#999" mask="url(#prefix__b)">
            <path d="M0 0H16V16H0z" transform="translate(-1 -1)"/>
        </g>
    </g>
</svg>
