<svg xmlns="http://www.w3.org/2000/svg" xmlns:xlink="http://www.w3.org/1999/xlink" width="16" height="16" viewBox="0 0 16 16">
    <defs>
        <path id="prefix__a" d="M8.33 5.781c.098-.085.243-.087.343-.006 1.227.997 3.284 2.486 4.4 3.284.062.045.103.114.11.19.008.077-.018.153-.07.209-.202.217-.486.342-.78.342H1.667c-.294 0-.578-.125-.78-.342-.052-.056-.078-.132-.07-.209.008-.076.048-.145.11-.19 1.118-.8 3.177-2.29 4.4-3.284.1-.082.246-.08.344.006.24.21.442.387.584.516.44.396 1.05.396 1.489 0 .143-.129.345-.306.585-.516zm4.63-3.957c.08-.068.19-.083.285-.039.095.044.155.138.155.242v6.09c0 .1-.056.192-.145.238-.038.02-.08.03-.122.03-.055 0-.11-.018-.155-.051-1.156-.832-2.757-2.002-3.82-2.853-.061-.05-.098-.124-.1-.203 0-.08.033-.156.093-.207 1.144-.984 2.66-2.272 3.81-3.247zM.756 1.785c.093-.043.205-.029.284.039 1.15.975 2.667 2.263 3.81 3.247.06.051.094.127.093.207-.002.079-.038.153-.1.203-1.062.85-2.663 2.021-3.82 2.853-.046.033-.1.05-.155.05-.042 0-.084-.01-.122-.03C.656 8.31.6 8.218.6 8.118v-6.09c0-.104.06-.198.155-.242zM12.333.2c.327 0 .633.15.837.41.089.114.072.276-.037.369-1.757 1.488-4.84 4.105-5.746 4.922-.122.11-.252.165-.387.165s-.266-.056-.388-.166C5.706 5.084 2.624 2.467.867.98.757.886.741.724.83.61 1.034.35 1.34.2 1.667.2z"/>
    </defs>
    <g fill="none" fill-rule="evenodd" transform="translate(1 3)">
        <mask id="prefix__b" fill="#fff">
            <use xlink:href="#prefix__a"/>
        </mask>
        <use fill="#000" fill-rule="nonzero" xlink:href="#prefix__a"/>
        <g fill="#999" mask="url(#prefix__b)">
            <path d="M0 0H16V16H0z" transform="translate(-1 -3)"/>
        </g>
    </g>
</svg>
