<svg xmlns="http://www.w3.org/2000/svg" xmlns:xlink="http://www.w3.org/1999/xlink" width="16" height="16" viewBox="0 0 16 16">
    <defs>
        <path id="prefix__a" d="M7 9.133c1.178 0 2.133.956 2.133 2.134V13.4H.6v-2.133c0-1.178.955-2.134 2.133-2.134zm4.267-3.2c1.178 0 2.133.956 2.133 2.134V10.2h-3.386c-.322-.906-1.042-1.62-1.947-1.941V5.933zM4.867 3.8C6.045 3.8 7 4.755 7 5.933c0 1.179-.955 2.134-2.133 2.134s-2.134-.955-2.134-2.134c0-1.178.956-2.133 2.134-2.133zM9.133.6c1.178 0 2.134.955 2.134 2.133s-.956 2.134-2.134 2.134S7 3.91 7 2.733 7.955.6 9.133.6z"/>
    </defs>
    <g fill="none" fill-rule="evenodd" transform="translate(1 1)">
        <mask id="prefix__b" fill="#fff">
            <use xlink:href="#prefix__a"/>
        </mask>
        <use fill="#000" fill-rule="nonzero" xlink:href="#prefix__a"/>
        <g fill="#999" mask="url(#prefix__b)">
            <path d="M0 0H16V16H0z" transform="translate(-1 -1)"/>
        </g>
    </g>
</svg>
