<svg xmlns="http://www.w3.org/2000/svg" xmlns:xlink="http://www.w3.org/1999/xlink" width="16" height="16" viewBox="0 0 16 16">
    <defs>
        <path id="prefix__a" d="M12.943 3.8h-2.286V1.057c0-.252-.205-.457-.457-.457H1.057C.805.6.6.805.6 1.057v10.514c0 1.01.819 1.829 1.829 1.829h9.142c1.01 0 1.829-.819 1.829-1.829V4.257c0-.252-.205-.457-.457-.457zm-8.686-.914H7c.252 0 .457.204.457.457 0 .252-.205.457-.457.457H4.257c-.252 0-.457-.205-.457-.457 0-.253.205-.457.457-.457zm4.114 8.685H2.886c-.253 0-.457-.204-.457-.457 0-.252.204-.457.457-.457H8.37c.253 0 .458.205.458.457 0 .253-.205.457-.458.457zm0-1.828H2.886c-.253 0-.457-.205-.457-.457 0-.253.204-.457.457-.457H8.37c.253 0 .458.204.458.457 0 .252-.205.457-.458.457zm0-1.829H2.886c-.253 0-.457-.204-.457-.457 0-.252.204-.457.457-.457H8.37c.253 0 .458.205.458.457 0 .253-.205.457-.458.457zm0-1.828H2.886c-.253 0-.457-.205-.457-.457 0-.253.204-.458.457-.458H8.37c.253 0 .458.205.458.458 0 .252-.205.457-.458.457zm4.115 5.485c0 .505-.41.915-.915.915-.505 0-.914-.41-.914-.915V4.714h1.829v6.857z"/>
    </defs>
    <g fill="none" fill-rule="evenodd" transform="translate(1 1)">
        <mask id="prefix__b" fill="#fff">
            <use xlink:href="#prefix__a"/>
        </mask>
        <use fill="#000" xlink:href="#prefix__a"/>
        <g fill="#999" mask="url(#prefix__b)">
            <path d="M0 0H16V16H0z" transform="translate(-1 -1)"/>
        </g>
    </g>
</svg>
