<svg xmlns="http://www.w3.org/2000/svg" xmlns:xlink="http://www.w3.org/1999/xlink" width="16" height="16" viewBox="0 0 16 16">
    <defs>
        <path id="prefix__a" d="M11.705 5.429l-.06-.022-.239-.58.026-.06c.72-1.667.671-1.717.551-1.837l-.96-.957c-.04-.04-.109-.068-.168-.068-.054 0-.218 0-1.637.656l-.057.026-.586-.24-.023-.06C7.884.6 7.816.6 7.65.6H6.293c-.165 0-.24 0-.86 1.69l-.023.061-.582.243-.056-.024c-.96-.413-1.522-.623-1.668-.623-.06 0-.128.027-.168.067l-.962.96c-.122.122-.172.174.586 1.807l.028.06-.238.58-.059.022C.6 6.11.6 6.175.6 6.35v1.358c0 .174 0 .246 1.695.866l.06.022.238.577-.025.059c-.72 1.668-.675 1.714-.552 1.838l.96.958c.04.04.109.068.168.068.054 0 .217 0 1.638-.656l.057-.027.585.242.023.06c.668 1.686.737 1.686.903 1.686h1.357c.17 0 .241 0 .86-1.69l.024-.062.583-.241.056.023c.96.414 1.52.624 1.665.624.06 0 .13-.027.17-.067l.963-.962c.12-.123.171-.174-.588-1.805l-.028-.062.237-.576.057-.023c1.694-.67 1.694-.736 1.694-.91V6.293c0-.174 0-.246-1.695-.864zm-4.704 4.775c-1.765 0-3.201-1.437-3.201-3.203C3.8 5.236 5.236 3.8 7 3.8c1.765 0 3.2 1.436 3.2 3.201 0 1.766-1.435 3.203-3.2 3.203z"/>
    </defs>
    <g fill="none" fill-rule="evenodd" transform="translate(1 1)">
        <mask id="prefix__b" fill="#fff">
            <use xlink:href="#prefix__a"/>
        </mask>
        <use fill="#000" xlink:href="#prefix__a"/>
        <g fill="#999" mask="url(#prefix__b)">
            <path d="M0 0H16V16H0z" transform="translate(-1 -1)"/>
        </g>
    </g>
</svg>
